<?xml version="1.0" encoding="UTF-8"?><svg id="Layer_1" xmlns="http://www.w3.org/2000/svg" viewBox="0 0 100 100"><defs><style>.cls-1{fill:#45a2c5;}.cls-2{fill:#00556e;}.cls-3{fill:#0b0d14;}.cls-4{fill:#007383;}.cls-5{fill:#003b53;}.cls-6{fill:#7fcdee;}.cls-7{fill:#052a39;}.cls-8{fill:#0097be;}.cls-9{fill:#1a2746;}.cls-10{fill:#e74810;}.cls-11{fill:#bee3f6;}.cls-12{fill:#241d20;}.cls-13{fill:#fcc100;}.cls-14{fill:#56bcec;}.cls-15{fill:#fff;}.cls-16{fill:#007584;}.cls-17{fill:#00b2be;}.cls-18{fill:#1c1933;}.cls-19{fill:#00acd3;}.cls-20{fill:#005a78;}.cls-21{fill:#005f6e;}.cls-22{fill:#0084a4;}</style></defs><path class="cls-18" d="M38.71,47.15h0c.38-3.43.25-9.28-.07-10.74-3.62-1.83-9.16-2.05-14.62-.3.75.52,2.42,2.17,2.96,2.57-.19.5-.31,1.03-.37,1.58-.36,3.48,2.18,6.59,5.67,6.94,1.72.18,3.36-.35,4.61-1.35l1.82,1.31Z"/><path class="cls-13" d="M37.66,41.38c-.27,2.6-2.6,4.5-5.21,4.23-2.61-.27-4.51-2.59-4.24-5.2.27-2.6,2.6-4.5,5.21-4.23,2.61.27,4.51,2.59,4.24,5.2Z"/><path class="cls-10" d="M36.12,41.22c-.18,1.76-1.75,3.03-3.51,2.85-1.76-.18-3.04-1.75-2.86-3.5.18-1.76,1.75-3.03,3.51-2.85,1.76.18,3.04,1.75,2.86,3.5Z"/><path class="cls-12" d="M34.83,41.09c-.11,1.04-1.04,1.8-2.09,1.7-1.05-.11-1.81-1.04-1.7-2.08.11-1.04,1.04-1.8,2.09-1.7,1.05.11,1.81,1.04,1.7,2.08Z"/><path class="cls-15" d="M33.22,39.02c-.08.82-.82,1.41-1.64,1.33-.82-.08-1.42-.82-1.33-1.63.08-.82.82-1.42,1.64-1.33.82.08,1.42.81,1.33,1.63Z"/><path class="cls-16" d="M24.03,36.11c5.46-1.74,11-1.53,14.62.3.32,1.46.44,7.31.07,10.73l3.26-4.65-3.98-11.2-14.69-1.56.73,6.38Z"/><polygon class="cls-17" points="23.3 29.73 37.99 31.29 39.49 26.14 30.55 20.67 23.3 29.73"/><polygon class="cls-20" points="39.49 26.14 37.99 31.29 41.97 42.49 44.59 38.98 39.49 26.14"/><path class="cls-6" d="M24.03,36.11c.75.52,2.42,2.17,2.96,2.57-.19.5-.31,1.03-.37,1.58-.36,3.48,2.18,6.59,5.67,6.94,1.72.18,3.36-.35,4.61-1.35l1.82,1.31s-5.93,3.93-5.86,3.93-9.23-7.79-9.23-7.79l.41-7.19Z"/><polygon class="cls-7" points="30.55 20.67 23.3 29.73 17.53 34.32 12.39 29.32 9.7 23.9 11.27 12.61 21.28 14.09 30.55 20.67"/><polygon class="cls-14" points="21.28 14.09 30.55 20.67 30.07 15.39 22.67 11.83 21.28 14.09"/><polygon class="cls-1" points="22.67 11.83 21.28 14.09 11.27 12.61 22.67 11.83"/><polygon class="cls-20" points="17.53 34.32 23.3 29.73 24.03 36.11 17.53 34.32"/><polygon class="cls-22" points="17.53 34.32 24.03 36.11 23.63 43.3 16.23 51.26 16.95 41.87 17.53 34.32"/><polygon class="cls-5" points="12.75 34.67 12.39 29.32 17.53 34.32 17.2 38.59 12.75 34.67"/><path class="cls-20" d="M16.23,51.26l7.4-7.96s9.29,7.79,9.23,7.79l1.08,10.02-6.79,3.26-10.91-13.11Z"/><polygon class="cls-17" points="38.71 47.14 41.97 42.49 44.59 38.98 50 42.66 40.34 48.31 38.71 47.14"/><polygon class="cls-20" points="33.93 61.11 40.34 48.31 38.71 47.14 33.93 61.11"/><path class="cls-19" d="M38.71,47.14l-4.78,13.97-1.08-10.02c-.07,0,5.86-3.93,5.86-3.93h0Z"/><polygon class="cls-4" points="33.93 61.11 40.34 48.31 50 42.66 43.73 60.64 40.25 63.24 33.93 61.11"/><polygon class="cls-17" points="43.73 60.64 50 42.66 50 62.46 43.73 60.64"/><polygon class="cls-5" points="27.14 64.37 33.93 61.11 33.62 64.44 28.73 68.24 25 71.15 27.14 64.37"/><polygon class="cls-7" points="33.62 64.44 33.93 61.11 40.25 63.24 40.34 65.09 33.62 64.44"/><polygon class="cls-3" points="40.34 65.09 40.25 63.24 43.73 60.64 50 62.46 50 69.58 46.43 69.27 43.12 68.98 40.34 65.09"/><polygon class="cls-21" points="28.73 68.24 33.62 64.44 40.34 65.09 43.12 68.98 46.43 69.27 47.91 74.53 46.52 75.23 28.73 68.24"/><polygon class="cls-17" points="25 71.15 28.73 68.24 46.52 75.23 34.42 81.39 25 71.15"/><polygon class="cls-2" points="46.52 75.23 37.97 79.58 37.27 82.55 46.09 78.51 46.52 75.23"/><polygon class="cls-6" points="39.49 26.14 44.59 38.98 50 42.66 50 29.29 39.49 26.14"/><polygon class="cls-22" points="39.49 26.14 30.55 20.67 30.07 15.39 40.86 10.79 39.49 26.14"/><polygon class="cls-11" points="40.86 10.79 39.49 26.14 50 29.29 40.86 10.79"/><polygon class="cls-14" points="40.86 10.79 50 29.29 50 14.52 40.86 10.79"/><polygon class="cls-9" points="47.91 74.53 46.43 69.27 50 69.58 50 74.47 47.91 74.53"/><polygon class="cls-7" points="46.09 78.51 46.52 75.23 47.91 74.53 50 74.47 50 80.15 46.09 78.51"/><polygon class="cls-8" points="37.27 82.55 46.09 78.51 50 80.15 50 88.63 42.17 89.21 37.27 82.55"/><path class="cls-18" d="M61.29,47.15h0c-.38-3.43-.25-9.28.07-10.74,3.62-1.83,9.16-2.05,14.62-.3-.75.52-2.42,2.17-2.96,2.57.19.5.31,1.03.37,1.58.36,3.48-2.18,6.59-5.67,6.94-1.72.18-3.36-.35-4.61-1.35l-1.81,1.31Z"/><path class="cls-13" d="M71.79,41.38c-.27,2.6-2.6,4.5-5.21,4.23-2.61-.27-4.51-2.59-4.24-5.2.27-2.6,2.6-4.5,5.21-4.23,2.61.27,4.51,2.59,4.24,5.2Z"/><path class="cls-10" d="M70.25,41.22c-.18,1.76-1.75,3.03-3.51,2.85-1.76-.18-3.04-1.75-2.86-3.5.18-1.76,1.75-3.03,3.51-2.85,1.76.18,3.04,1.75,2.86,3.5Z"/><path class="cls-12" d="M68.96,41.09c-.11,1.04-1.04,1.8-2.09,1.7-1.05-.11-1.81-1.04-1.7-2.08.11-1.04,1.04-1.8,2.09-1.7,1.05.11,1.81,1.04,1.7,2.08Z"/><path class="cls-15" d="M67.35,39.02c-.08.82-.82,1.41-1.64,1.33-.82-.08-1.42-.82-1.33-1.63.08-.82.82-1.42,1.64-1.33.82.08,1.42.81,1.33,1.63Z"/><path class="cls-16" d="M75.97,36.11c-5.46-1.74-11-1.53-14.62.3-.32,1.46-.44,7.31-.07,10.73l-3.26-4.65,3.98-11.2,14.69-1.56-.73,6.38Z"/><polygon class="cls-17" points="76.7 29.73 62.01 31.29 60.51 26.14 69.45 20.67 76.7 29.73"/><polygon class="cls-20" points="60.51 26.14 62.01 31.29 58.03 42.49 55.41 38.98 60.51 26.14"/><path class="cls-6" d="M75.97,36.11c-.75.52-2.42,2.17-2.96,2.57.19.5.31,1.03.37,1.58.36,3.48-2.18,6.59-5.67,6.94-1.72.18-3.36-.35-4.61-1.35l-1.81,1.31s5.93,3.93,5.86,3.93,9.23-7.79,9.23-7.79l-.41-7.19Z"/><polygon class="cls-7" points="69.45 20.67 76.7 29.73 82.47 34.32 87.61 29.32 90.3 23.9 88.73 12.61 78.72 14.09 69.45 20.67"/><polygon class="cls-14" points="78.72 14.09 69.45 20.67 69.93 15.39 77.33 11.83 78.72 14.09"/><polygon class="cls-1" points="77.33 11.83 78.72 14.09 88.73 12.61 77.33 11.83"/><polygon class="cls-20" points="82.47 34.32 76.7 29.73 75.97 36.11 82.47 34.32"/><polygon class="cls-22" points="82.47 34.32 75.97 36.11 76.37 43.3 83.77 51.26 83.05 41.87 82.47 34.32"/><polygon class="cls-5" points="87.25 34.67 87.61 29.32 82.47 34.32 82.8 38.59 87.25 34.67"/><path class="cls-20" d="M83.77,51.26l-7.4-7.96s-9.29,7.79-9.23,7.79l-1.08,10.02,6.79,3.26,10.91-13.11Z"/><polygon class="cls-17" points="61.29 47.14 58.03 42.49 55.41 38.98 50 42.66 59.66 48.31 61.29 47.14"/><polygon class="cls-20" points="66.07 61.11 59.66 48.31 61.29 47.14 66.07 61.11"/><path class="cls-19" d="M61.29,47.14l4.78,13.97,1.08-10.02c.07,0-5.86-3.93-5.86-3.93h0Z"/><polygon class="cls-4" points="66.07 61.11 59.66 48.31 50 42.66 56.27 60.64 59.75 63.24 66.07 61.11"/><polygon class="cls-19" points="56.27 60.64 50 42.66 50 62.46 56.27 60.64"/><polygon class="cls-5" points="72.86 64.37 66.07 61.11 66.38 64.44 71.27 68.24 75 71.15 72.86 64.37"/><polygon class="cls-7" points="66.38 64.44 66.07 61.11 59.75 63.24 59.66 65.09 66.38 64.44"/><polygon class="cls-3" points="59.66 65.09 59.75 63.24 56.27 60.64 50 62.46 50 69.58 53.57 69.27 56.88 68.98 59.66 65.09"/><polygon class="cls-21" points="71.27 68.24 66.38 64.44 59.66 65.09 56.88 68.98 53.57 69.27 52.09 74.53 53.48 75.23 71.27 68.24"/><polygon class="cls-17" points="75 71.15 71.27 68.24 53.48 75.23 65.58 81.39 75 71.15"/><polygon class="cls-2" points="53.48 75.23 62.03 79.58 62.73 82.55 53.91 78.51 53.48 75.23"/><polygon class="cls-11" points="60.51 26.14 55.41 38.98 50 42.66 50 29.29 60.51 26.14"/><polygon class="cls-22" points="60.51 26.14 69.45 20.67 69.93 15.39 59.14 10.79 60.51 26.14"/><polygon class="cls-14" points="59.14 10.79 60.51 26.14 50 29.29 59.14 10.79"/><polygon class="cls-11" points="59.14 10.79 50 29.29 50 14.52 59.14 10.79"/><polygon class="cls-9" points="52.09 74.53 53.57 69.27 50 69.58 50 74.47 52.09 74.53"/><polygon class="cls-7" points="53.91 78.51 53.48 75.23 52.09 74.53 50 74.47 50 80.15 53.91 78.51"/><polygon class="cls-22" points="62.73 82.55 53.91 78.51 50 80.15 50 88.63 57.83 89.21 62.73 82.55"/></svg>