<?xml version="1.0" encoding="UTF-8"?><svg id="Layer_1" xmlns="http://www.w3.org/2000/svg" viewBox="0 0 200 200"><defs><style>.cls-1{fill:#45a2c5;}.cls-2{fill:#00556e;}.cls-3{fill:#0b0d14;}.cls-4{fill:#007383;}.cls-5{fill:#003b53;}.cls-6{fill:#7fcdee;}.cls-7{fill:#052a39;}.cls-8{fill:#0097be;}.cls-9{fill:#1a2746;}.cls-10{fill:#e74810;}.cls-11{fill:#bee3f6;}.cls-12{fill:#241d20;}.cls-13{fill:#fcc100;}.cls-14{fill:#56bcec;}.cls-15{fill:#fff;}.cls-16{fill:#007584;}.cls-17{fill:#00b2be;}.cls-18{fill:#1c1933;}.cls-19{fill:#00acd3;}.cls-20{fill:#005a78;}.cls-21{fill:#005f6e;}.cls-22{fill:#0084a4;}</style></defs><path class="cls-18" d="M76.15,93.98v-.03c.79-7.22.54-19.58-.14-22.67-7.65-3.86-19.35-4.32-30.89-.64,1.59,1.09,5.12,4.59,6.25,5.42-.39,1.05-.66,2.17-.78,3.33-.75,7.35,4.61,13.92,11.98,14.67,3.64.37,7.09-.75,9.74-2.86l3.84,2.76Z"/><path class="cls-13" d="M73.92,81.78c-.56,5.5-5.49,9.51-11.01,8.95-5.52-.56-9.53-5.48-8.97-10.98.56-5.5,5.49-9.51,11.01-8.95,5.52.56,9.53,5.48,8.97,10.98Z"/><path class="cls-10" d="M70.67,81.45c-.38,3.71-3.7,6.41-7.42,6.03-3.72-.38-6.43-3.69-6.05-7.4.38-3.71,3.7-6.41,7.42-6.03,3.72.38,6.43,3.69,6.05,7.4Z"/><path class="cls-12" d="M67.94,81.17c-.23,2.2-2.2,3.81-4.41,3.58-2.21-.22-3.82-2.19-3.59-4.4.23-2.2,2.2-3.81,4.41-3.58,2.21.23,3.82,2.19,3.59,4.4Z"/><path class="cls-15" d="M64.54,76.79c-.18,1.73-1.73,2.99-3.46,2.81-1.74-.18-3-1.72-2.82-3.45.18-1.73,1.73-2.99,3.46-2.81,1.73.18,3,1.72,2.82,3.45Z"/><path class="cls-16" d="M45.13,70.65c11.53-3.68,23.24-3.22,30.89.64.67,3.09.93,15.45.14,22.67l6.89-9.82-8.42-23.67-31.04-3.3,1.54,13.49Z"/><polygon class="cls-17" points="43.59 57.16 74.63 60.46 77.8 49.59 58.9 38.03 43.59 57.16"/><polygon class="cls-20" points="77.8 49.59 74.63 60.46 83.04 84.13 88.56 76.7 77.8 49.59"/><path class="cls-6" d="M45.13,70.65c1.59,1.09,5.12,4.59,6.25,5.42-.39,1.05-.66,2.17-.78,3.33-.75,7.35,4.61,13.92,11.98,14.67,3.64.37,7.09-.75,9.74-2.86l3.84,2.76s-12.52,8.31-12.39,8.31-19.5-16.46-19.5-16.46l.86-15.19Z"/><polygon class="cls-7" points="58.9 38.03 43.59 57.16 31.39 66.87 20.51 56.3 14.83 44.85 18.15 21 39.3 24.11 58.9 38.03"/><polygon class="cls-14" points="39.3 24.11 58.9 38.03 57.88 26.87 42.24 19.34 39.3 24.11"/><polygon class="cls-1" points="42.24 19.34 39.3 24.11 18.15 21 42.24 19.34"/><polygon class="cls-20" points="31.39 66.87 43.59 57.16 45.13 70.65 31.39 66.87"/><polygon class="cls-22" points="31.39 66.87 45.13 70.65 44.27 85.84 28.63 102.66 30.16 82.82 31.39 66.87"/><polygon class="cls-5" points="21.27 67.61 20.51 56.3 31.39 66.87 30.7 75.88 21.27 67.61"/><path class="cls-20" d="M28.63,102.66l15.64-16.82s19.64,16.46,19.5,16.46l2.28,21.18-14.35,6.88-23.06-27.7Z"/><polygon class="cls-17" points="76.15 93.96 83.04 84.13 88.56 76.7 100 84.49 79.58 96.42 76.15 93.96"/><polygon class="cls-20" points="66.04 123.48 79.58 96.42 76.15 93.96 66.04 123.48"/><path class="cls-19" d="M76.15,93.96l-10.11,29.52-2.28-21.18c-.14,0,12.39-8.31,12.39-8.31v-.03Z"/><polygon class="cls-4" points="66.04 123.48 79.58 96.42 100 84.49 86.76 122.48 79.4 127.99 66.04 123.48"/><polygon class="cls-17" points="86.76 122.48 100 84.49 100 126.33 86.76 122.48"/><polygon class="cls-5" points="51.69 130.36 66.04 123.48 65.38 130.52 55.06 138.55 47.17 144.69 51.69 130.36"/><polygon class="cls-7" points="65.38 130.52 66.04 123.48 79.4 127.99 79.59 131.89 65.38 130.52"/><polygon class="cls-3" points="79.59 131.89 79.4 127.99 86.76 122.48 100 126.33 100 141.38 92.45 140.72 85.47 140.1 79.59 131.89"/><polygon class="cls-21" points="55.06 138.55 65.38 130.52 79.59 131.89 85.47 140.1 92.45 140.72 95.59 151.84 92.64 153.31 55.06 138.55"/><polygon class="cls-17" points="47.17 144.69 55.06 138.55 92.64 153.31 67.07 166.34 47.17 144.69"/><polygon class="cls-2" points="92.64 153.31 74.59 162.51 73.11 168.78 91.73 160.24 92.64 153.31"/><polygon class="cls-6" points="77.8 49.59 88.56 76.7 100 84.49 100 56.23 77.8 49.59"/><polygon class="cls-22" points="77.8 49.59 58.9 38.03 57.88 26.87 80.69 17.14 77.8 49.59"/><polygon class="cls-11" points="80.69 17.14 77.8 49.59 100 56.23 80.69 17.14"/><polygon class="cls-14" points="80.69 17.14 100 56.23 100 25.03 80.69 17.14"/><polygon class="cls-9" points="95.59 151.84 92.45 140.72 100 141.38 100 151.71 95.59 151.84"/><polygon class="cls-7" points="91.73 160.24 92.64 153.31 95.59 151.84 100 151.71 100 163.71 91.73 160.24"/><polygon class="cls-8" points="73.11 168.78 91.73 160.24 100 163.71 100 181.64 83.45 182.86 73.11 168.78"/><path class="cls-18" d="M123.85,93.98v-.03c-.8-7.22-.54-19.58.14-22.67,7.65-3.86,19.35-4.32,30.89-.64-1.59,1.09-5.12,4.59-6.25,5.42.39,1.05.66,2.17.78,3.33.75,7.35-4.61,13.92-11.98,14.67-3.64.37-7.09-.75-9.74-2.86l-3.84,2.76Z"/><path class="cls-13" d="M146.05,81.78c-.56,5.5-5.49,9.51-11.01,8.95-5.52-.56-9.53-5.48-8.97-10.98.56-5.5,5.49-9.51,11.01-8.95,5.52.56,9.53,5.48,8.97,10.98Z"/><path class="cls-10" d="M142.8,81.45c-.38,3.71-3.7,6.41-7.42,6.03-3.72-.38-6.43-3.69-6.05-7.4.38-3.71,3.7-6.41,7.42-6.03,3.72.38,6.43,3.69,6.05,7.4Z"/><path class="cls-12" d="M140.06,81.17c-.23,2.2-2.2,3.81-4.41,3.58-2.21-.22-3.82-2.19-3.59-4.4.23-2.2,2.2-3.81,4.41-3.58,2.21.23,3.82,2.19,3.59,4.4Z"/><path class="cls-15" d="M136.67,76.79c-.18,1.73-1.73,2.99-3.46,2.81-1.74-.18-3-1.72-2.82-3.45.18-1.73,1.73-2.99,3.46-2.81,1.73.18,3,1.72,2.82,3.45Z"/><path class="cls-16" d="M154.88,70.65c-11.53-3.68-23.24-3.22-30.89.64-.67,3.09-.93,15.45-.14,22.67l-6.89-9.82,8.41-23.67,31.04-3.3-1.54,13.49Z"/><polygon class="cls-17" points="156.41 57.16 125.38 60.46 122.2 49.59 141.1 38.03 156.41 57.16"/><polygon class="cls-20" points="122.2 49.59 125.38 60.46 116.96 84.13 111.44 76.7 122.2 49.59"/><path class="cls-6" d="M154.88,70.65c-1.59,1.09-5.12,4.59-6.25,5.42.39,1.05.66,2.17.78,3.33.75,7.35-4.61,13.92-11.98,14.67-3.64.37-7.09-.75-9.74-2.86l-3.84,2.76s12.52,8.31,12.39,8.31,19.5-16.46,19.5-16.46l-.86-15.19Z"/><polygon class="cls-7" points="141.1 38.03 156.41 57.16 168.61 66.87 179.49 56.3 185.17 44.85 181.85 21 160.7 24.11 141.1 38.03"/><polygon class="cls-14" points="160.7 24.11 141.1 38.03 142.12 26.87 157.76 19.34 160.7 24.11"/><polygon class="cls-1" points="157.76 19.34 160.7 24.11 181.85 21 157.76 19.34"/><polygon class="cls-20" points="168.61 66.87 156.41 57.16 154.88 70.65 168.61 66.87"/><polygon class="cls-22" points="168.61 66.87 154.88 70.65 155.73 85.84 171.37 102.66 169.84 82.82 168.61 66.87"/><polygon class="cls-5" points="178.73 67.61 179.49 56.3 168.61 66.87 169.31 75.88 178.73 67.61"/><path class="cls-20" d="M171.37,102.66l-15.64-16.82s-19.64,16.46-19.5,16.46l-2.28,21.18,14.35,6.88,23.06-27.7Z"/><polygon class="cls-17" points="123.85 93.96 116.96 84.13 111.44 76.7 100 84.49 120.42 96.42 123.85 93.96"/><polygon class="cls-20" points="133.96 123.48 120.42 96.42 123.85 93.96 133.96 123.48"/><path class="cls-19" d="M123.85,93.96l10.11,29.52,2.28-21.18c.14,0-12.39-8.31-12.39-8.31v-.03Z"/><polygon class="cls-4" points="133.96 123.48 120.42 96.42 100 84.49 113.24 122.48 120.6 127.99 133.96 123.48"/><polygon class="cls-19" points="113.24 122.48 100 84.49 100 126.33 113.24 122.48"/><polygon class="cls-5" points="148.31 130.36 133.96 123.48 134.62 130.52 144.94 138.55 152.83 144.69 148.31 130.36"/><polygon class="cls-7" points="134.62 130.52 133.96 123.48 120.6 127.99 120.41 131.89 134.62 130.52"/><polygon class="cls-3" points="120.41 131.89 120.6 127.99 113.24 122.48 100 126.33 100 141.38 107.55 140.72 114.53 140.1 120.41 131.89"/><polygon class="cls-21" points="144.94 138.55 134.62 130.52 120.41 131.89 114.53 140.1 107.55 140.72 104.41 151.84 107.36 153.31 144.94 138.55"/><polygon class="cls-17" points="152.83 144.69 144.94 138.55 107.36 153.31 132.93 166.34 152.83 144.69"/><polygon class="cls-2" points="107.36 153.31 125.41 162.51 126.89 168.78 108.27 160.24 107.36 153.31"/><polygon class="cls-11" points="122.2 49.59 111.44 76.7 100 84.49 100 56.23 122.2 49.59"/><polygon class="cls-22" points="122.2 49.59 141.1 38.03 142.12 26.87 119.31 17.14 122.2 49.59"/><polygon class="cls-14" points="119.31 17.14 122.2 49.59 100 56.23 119.31 17.14"/><polygon class="cls-11" points="119.31 17.14 100 56.23 100 25.03 119.31 17.14"/><polygon class="cls-9" points="104.41 151.84 107.55 140.72 100 141.38 100 151.71 104.41 151.84"/><polygon class="cls-7" points="108.27 160.24 107.36 153.31 104.41 151.84 100 151.71 100 163.71 108.27 160.24"/><polygon class="cls-22" points="126.89 168.78 108.27 160.24 100 163.71 100 181.64 116.55 182.86 126.89 168.78"/></svg>