<?xml version="1.0" encoding="UTF-8"?><svg id="Layer_1" xmlns="http://www.w3.org/2000/svg" viewBox="0 0 415 200"><defs><style>.cls-1{fill:#45a2c5;}.cls-2{fill:#00556e;}.cls-3{fill:#0b0d14;}.cls-4{fill:#007383;}.cls-5{fill:#003b53;}.cls-6{fill:#7fcdee;}.cls-7{fill:#052a39;}.cls-8{fill:#0097be;}.cls-9{fill:#1a2746;}.cls-10{fill:#e74810;}.cls-11{fill:#bee3f6;}.cls-12{fill:#241d20;}.cls-13{fill:#fcc100;}.cls-14{fill:#56bcec;}.cls-15{fill:#fff;}.cls-16{fill:#007584;}.cls-17{fill:#00b2be;}.cls-18{fill:#1c1933;}.cls-19{fill:#00acd3;}.cls-20{fill:#005a78;}.cls-21{fill:#005f6e;}.cls-22{fill:#0084a4;}</style></defs><path class="cls-18" d="M70.21,95.33v-.02c.62-5.6.42-15.21-.11-17.61-5.94-3-15.03-3.36-23.99-.5,1.24.85,3.98,3.57,4.85,4.21-.31.82-.51,1.68-.61,2.59-.58,5.71,3.58,10.81,9.31,11.4,2.83.29,5.51-.58,7.57-2.22l2.98,2.15Z"/><path class="cls-13" d="M68.48,85.85c-.44,4.27-4.26,7.39-8.55,6.95-4.28-.44-7.4-4.25-6.96-8.53.44-4.27,4.26-7.38,8.55-6.95,4.28.44,7.4,4.25,6.96,8.53Z"/><path class="cls-10" d="M65.95,85.59c-.3,2.88-2.88,4.98-5.76,4.68-2.89-.29-4.99-2.87-4.7-5.75.3-2.88,2.88-4.98,5.76-4.69,2.89.29,4.99,2.87,4.7,5.75Z"/><path class="cls-12" d="M63.83,85.38c-.18,1.71-1.71,2.96-3.42,2.78-1.72-.17-2.96-1.7-2.79-3.42.18-1.71,1.71-2.96,3.42-2.78,1.72.17,2.96,1.7,2.79,3.42Z"/><path class="cls-15" d="M61.19,81.97c-.14,1.34-1.34,2.32-2.69,2.19-1.35-.14-2.33-1.34-2.19-2.68.14-1.34,1.34-2.32,2.69-2.19,1.35.14,2.33,1.34,2.19,2.68Z"/><path class="cls-16" d="M46.11,77.2c8.96-2.86,18.05-2.5,23.99.5.52,2.4.72,12,.11,17.61l5.35-7.63-6.54-18.39-24.11-2.57,1.2,10.48Z"/><polygon class="cls-17" points="44.91 66.73 69.02 69.29 71.49 60.85 56.81 51.87 44.91 66.73"/><polygon class="cls-20" points="71.49 60.85 69.02 69.29 75.56 87.68 79.84 81.9 71.49 60.85"/><path class="cls-6" d="M46.11,77.2c1.24.85,3.98,3.57,4.85,4.21-.31.82-.51,1.68-.61,2.59-.58,5.71,3.58,10.81,9.31,11.4,2.83.29,5.51-.58,7.57-2.22l2.98,2.15s-9.73,6.46-9.62,6.46-15.14-12.78-15.14-12.78l.67-11.8Z"/><polygon class="cls-7" points="56.81 51.87 44.91 66.73 35.44 74.27 26.99 66.06 22.58 57.17 25.15 38.64 41.58 41.06 56.81 51.87"/><polygon class="cls-14" points="41.58 41.06 56.81 51.87 56.01 43.2 43.87 37.35 41.58 41.06"/><polygon class="cls-1" points="43.87 37.35 41.58 41.06 25.15 38.64 43.87 37.35"/><polygon class="cls-20" points="35.44 74.27 44.91 66.73 46.11 77.2 35.44 74.27"/><polygon class="cls-22" points="35.44 74.27 46.11 77.2 45.44 89 33.3 102.07 34.49 86.65 35.44 74.27"/><polygon class="cls-5" points="27.58 74.84 26.99 66.06 35.44 74.27 34.9 81.27 27.58 74.84"/><path class="cls-20" d="M33.3,102.07l12.14-13.07s15.25,12.78,15.14,12.78l1.77,16.45-11.14,5.35-17.91-21.51Z"/><polygon class="cls-17" points="70.21 95.31 75.56 87.68 79.84 81.9 88.73 87.96 72.87 97.22 70.21 95.31"/><polygon class="cls-20" points="62.36 118.23 72.87 97.22 70.21 95.31 62.36 118.23"/><path class="cls-19" d="M70.21,95.31l-7.85,22.93-1.77-16.45c-.11,0,9.62-6.46,9.62-6.46v-.02Z"/><polygon class="cls-4" points="62.36 118.23 72.87 97.22 88.73 87.96 78.44 117.46 72.73 121.74 62.36 118.23"/><polygon class="cls-17" points="78.44 117.46 88.73 87.96 88.73 120.45 78.44 117.46"/><polygon class="cls-5" points="51.21 123.58 62.36 118.23 61.84 123.7 53.82 129.94 47.7 134.71 51.21 123.58"/><polygon class="cls-7" points="61.84 123.7 62.36 118.23 72.73 121.74 72.88 124.77 61.84 123.7"/><polygon class="cls-3" points="72.88 124.77 72.73 121.74 78.44 117.46 88.73 120.45 88.73 132.14 82.87 131.62 77.44 131.14 72.88 124.77"/><polygon class="cls-21" points="53.82 129.94 61.84 123.7 72.88 124.77 77.44 131.14 82.87 131.62 85.3 140.27 83.02 141.41 53.82 129.94"/><polygon class="cls-17" points="47.7 134.71 53.82 129.94 83.02 141.41 63.16 151.53 47.7 134.71"/><polygon class="cls-2" points="83.02 141.41 68.99 148.55 67.84 153.42 82.31 146.79 83.02 141.41"/><polygon class="cls-6" points="71.49 60.85 79.84 81.9 88.73 87.96 88.73 66 71.49 60.85"/><polygon class="cls-22" points="71.49 60.85 56.81 51.87 56.01 43.2 73.73 35.64 71.49 60.85"/><polygon class="cls-11" points="73.73 35.64 71.49 60.85 88.73 66 73.73 35.64"/><polygon class="cls-14" points="73.73 35.64 88.73 66 88.73 41.77 73.73 35.64"/><polygon class="cls-9" points="85.3 140.27 82.87 131.62 88.73 132.14 88.73 140.16 85.3 140.27"/><polygon class="cls-7" points="82.31 146.79 83.02 141.41 85.3 140.27 88.73 140.16 88.73 149.48 82.31 146.79"/><polygon class="cls-8" points="67.84 153.42 82.31 146.79 88.73 149.48 88.73 163.41 75.87 164.36 67.84 153.42"/><path class="cls-18" d="M107.25,95.33v-.02c-.62-5.6-.42-15.21.11-17.61,5.94-3,15.03-3.36,23.99-.5-1.24.85-3.98,3.57-4.85,4.21.31.82.51,1.68.61,2.59.58,5.71-3.58,10.81-9.31,11.4-2.83.29-5.51-.58-7.57-2.22l-2.98,2.15Z"/><path class="cls-13" d="M124.5,85.85c-.44,4.27-4.27,7.39-8.55,6.95-4.28-.44-7.4-4.25-6.96-8.53.44-4.27,4.26-7.38,8.55-6.95,4.28.44,7.4,4.25,6.96,8.53Z"/><path class="cls-10" d="M121.97,85.59c-.3,2.88-2.88,4.98-5.76,4.68-2.89-.29-4.99-2.87-4.7-5.75.3-2.88,2.88-4.98,5.76-4.69,2.89.29,4.99,2.87,4.7,5.75Z"/><path class="cls-12" d="M119.85,85.38c-.18,1.71-1.71,2.96-3.42,2.78-1.72-.17-2.96-1.7-2.79-3.42.17-1.71,1.71-2.96,3.42-2.78,1.72.17,2.96,1.7,2.79,3.42Z"/><path class="cls-15" d="M117.21,81.97c-.14,1.34-1.34,2.32-2.69,2.19-1.35-.14-2.33-1.34-2.19-2.68.14-1.34,1.34-2.32,2.69-2.19,1.35.14,2.33,1.34,2.19,2.68Z"/><path class="cls-16" d="M131.35,77.2c-8.96-2.86-18.05-2.5-23.99.5-.52,2.4-.72,12-.11,17.61l-5.35-7.63,6.54-18.39,24.11-2.57-1.2,10.48Z"/><polygon class="cls-17" points="132.55 66.73 108.44 69.29 105.97 60.85 120.65 51.87 132.55 66.73"/><polygon class="cls-20" points="105.97 60.85 108.44 69.29 101.9 87.68 97.62 81.9 105.97 60.85"/><path class="cls-6" d="M131.35,77.2c-1.24.85-3.98,3.57-4.85,4.21.31.82.51,1.68.61,2.59.58,5.71-3.58,10.81-9.31,11.4-2.83.29-5.51-.58-7.57-2.22l-2.98,2.15s9.73,6.46,9.62,6.46,15.14-12.78,15.14-12.78l-.67-11.8Z"/><polygon class="cls-7" points="120.65 51.87 132.55 66.73 142.02 74.27 150.47 66.06 154.88 57.17 152.31 38.64 135.88 41.06 120.65 51.87"/><polygon class="cls-14" points="135.88 41.06 120.65 51.87 121.45 43.2 133.59 37.35 135.88 41.06"/><polygon class="cls-1" points="133.59 37.35 135.88 41.06 152.31 38.64 133.59 37.35"/><polygon class="cls-20" points="142.02 74.27 132.55 66.73 131.35 77.2 142.02 74.27"/><polygon class="cls-22" points="142.02 74.27 131.35 77.2 132.02 89 144.16 102.07 142.97 86.65 142.02 74.27"/><polygon class="cls-5" points="149.88 74.84 150.47 66.06 142.02 74.27 142.56 81.27 149.88 74.84"/><path class="cls-20" d="M144.16,102.07l-12.14-13.07s-15.25,12.78-15.14,12.78l-1.77,16.45,11.14,5.35,17.91-21.51Z"/><polygon class="cls-17" points="107.25 95.31 101.9 87.68 97.62 81.9 88.73 87.96 104.59 97.22 107.25 95.31"/><polygon class="cls-20" points="115.1 118.23 104.59 97.22 107.25 95.31 115.1 118.23"/><path class="cls-19" d="M107.25,95.31l7.85,22.93,1.77-16.45c.11,0-9.62-6.46-9.62-6.46v-.02Z"/><polygon class="cls-4" points="115.1 118.23 104.59 97.22 88.73 87.96 99.02 117.46 104.73 121.74 115.1 118.23"/><polygon class="cls-19" points="99.02 117.46 88.73 87.96 88.73 120.45 99.02 117.46"/><polygon class="cls-5" points="126.25 123.58 115.1 118.23 115.62 123.7 123.64 129.94 129.76 134.71 126.25 123.58"/><polygon class="cls-7" points="115.62 123.7 115.1 118.23 104.73 121.74 104.58 124.77 115.62 123.7"/><polygon class="cls-3" points="104.58 124.77 104.73 121.74 99.02 117.46 88.73 120.45 88.73 132.14 94.59 131.62 100.02 131.14 104.58 124.77"/><polygon class="cls-21" points="123.64 129.94 115.62 123.7 104.58 124.77 100.02 131.14 94.59 131.62 92.16 140.27 94.44 141.41 123.64 129.94"/><polygon class="cls-17" points="129.76 134.71 123.64 129.94 94.44 141.41 114.3 151.53 129.76 134.71"/><polygon class="cls-2" points="94.44 141.41 108.47 148.55 109.62 153.42 95.15 146.79 94.44 141.41"/><polygon class="cls-11" points="105.97 60.85 97.62 81.9 88.73 87.96 88.73 66 105.97 60.85"/><polygon class="cls-22" points="105.97 60.85 120.65 51.87 121.45 43.2 103.73 35.64 105.97 60.85"/><polygon class="cls-14" points="103.73 35.64 105.97 60.85 88.73 66 103.73 35.64"/><polygon class="cls-11" points="103.73 35.64 88.73 66 88.73 41.77 103.73 35.64"/><polygon class="cls-9" points="92.16 140.27 94.59 131.62 88.73 132.14 88.73 140.16 92.16 140.27"/><polygon class="cls-7" points="95.15 146.79 94.44 141.41 92.16 140.27 88.73 140.16 88.73 149.48 95.15 146.79"/><polygon class="cls-22" points="109.62 153.42 95.15 146.79 88.73 149.48 88.73 163.41 101.59 164.36 109.62 153.42"/><path class="cls-3" d="M188.93,80.27c-4.52,0-8.99,1.1-11.31,2.31v44.34h6.66v-13.54c1.1.36,3.36.79,5.38.79,9.97,0,15.28-7.02,15.28-17.08s-5.75-16.83-16.02-16.83ZM189.05,109c-1.77,0-3.91-.36-4.77-.73v-21.9c.92-.43,2.93-.86,4.77-.86,5.99,0,9.23,4.46,9.23,11.59s-3.18,11.9-9.23,11.9Z"/><path class="cls-3" d="M208.61,80.23v33.58h6.66v-27.27h8.39s1.52-6.31,1.52-6.31c-.96.02-2.33.04-3.8.04-4.89,0-9.14-.07-12.78-.04Z"/><path class="cls-3" d="M240.23,80.22c-9.35,0-14.49,7.31-14.49,17.08s5.14,17.13,14.49,17.13,14.49-7.38,14.49-17.13-5.14-17.08-14.49-17.08ZM240.23,109.01c-5.2,0-7.76-4.7-7.76-11.77s2.57-11.71,7.76-11.71,7.76,4.64,7.76,11.71-2.57,11.77-7.76,11.77Z"/><path class="cls-3" d="M292.11,80.27c-4.88,0-8.87,1.76-10.93,3.54-1.84-1.9-5.32-3.54-10.52-3.54-4.46,0-8.62.97-11.86,2.31v31.23h6.66v-27.2c1.41-.61,3.36-.97,5.62-.97,4.1,0,6.72,2.01,6.72,5.31v22.87h6.73v-25.98c1.35-1.4,3.49-2.19,6.05-2.19,3.79,0,6.3,2.13,6.3,5.91v22.27h6.66v-22.93c0-6.53-4.41-10.61-11.44-10.61Z"/><path class="cls-3" d="M320.24,80.27c-4.4,0-8.87,1.16-11.49,2.31l1.71,4.58c2.2-1.04,5.99-2.02,9.11-2.02,4.22,0,6.97,1.47,6.97,5.61v2.08c-9.97.55-19.75,2.19-19.75,11.35,0,6.46,4.77,10.31,14.25,10.31,4.65,0,9.48-1.04,11.86-2.32v-20.74c0-8.11-4.77-11.16-12.66-11.16ZM326.54,108.81c-1.04.49-3.55.86-5.69.86-5.07,0-7.77-2.14-7.77-5.61,0-5.86,6.73-6.4,13.45-6.77v11.52Z"/><path class="cls-3" d="M337.81,80.23l-.03,33.3h6.67v-27.27h8.46s1.38-6.04,1.38-6.04c-.99,0-2.3,0-3.77,0-4.89,0-9.04.01-12.7.01Z"/><polygon class="cls-3" points="370.49 96.43 383.81 80.93 376.05 80.93 363.4 95.7 363.27 95.7 363.27 65.93 356.67 65.93 356.67 113.81 363.27 113.81 363.27 97.1 363.4 97.1 376.91 113.81 384.61 113.81 370.49 96.43"/><path class="cls-3" d="M388.95,107.26c1.92,0,3.47,1.55,3.47,3.46s-1.55,3.46-3.47,3.46-3.47-1.55-3.47-3.46,1.55-3.46,3.47-3.46ZM388.95,113.72c1.66,0,3.01-1.35,3.01-3s-1.35-3-3.01-3-3.01,1.35-3.01,3,1.35,3,3.01,3ZM387.62,108.62h1.62c.95,0,1.37.42,1.37,1.17s-.49,1.07-1.05,1.17l1.25,1.86h-.52l-1.24-1.86h-.96v1.86h-.46v-4.19ZM388.08,110.53h1.05c.57.01,1.01-.16,1.01-.75s-.49-.74-1.01-.74h-1.05v1.49Z"/></svg>